<svg width="25" height="19" viewBox="0 0 25 19" fill="none" xmlns="http://www.w3.org/2000/svg">
<g id="Icon" clip-path="url(#clip0_1_53)">
<path id="Vector" d="M21.5791 0.0897217H3.43848C2.62988 0.0897217 1.93848 0.370972 1.36426 0.933472C0.790039 1.49597 0.50293 2.18152 0.50293 2.99011V15.1893C0.50293 15.9979 0.790039 16.6835 1.36426 17.246C1.93848 17.8085 2.62988 18.0897 3.43848 18.0897H21.5615C22.3701 18.0897 23.0615 17.8085 23.6357 17.246C24.21 16.6835 24.4971 15.9979 24.4971 15.1893V2.99011C24.5088 2.19324 24.2275 1.51062 23.6533 0.942261C23.0791 0.373901 22.3877 0.0897217 21.5791 0.0897217ZM23.1611 15.1893C23.1611 15.6229 23.0059 15.995 22.6953 16.3055C22.3848 16.6161 22.0127 16.7714 21.5791 16.7714H3.43848C2.99316 16.7714 2.61523 16.6161 2.30469 16.3055C1.99414 15.995 1.83887 15.6229 1.83887 15.1893V2.99011C1.83887 2.55652 1.99414 2.18445 2.30469 1.8739C2.61523 1.56335 2.99316 1.40808 3.43848 1.40808H21.5615C22.0068 1.40808 22.3848 1.56335 22.6953 1.8739C23.0059 2.18445 23.1611 2.55652 23.1611 2.99011V15.1893ZM16.1475 8.93152L21.8779 3.65808C22.0068 3.54089 22.0771 3.38855 22.0889 3.20105C22.1006 3.01355 22.0479 2.84949 21.9307 2.70886C21.8018 2.57996 21.6494 2.50964 21.4736 2.49792C21.2979 2.48621 21.1396 2.5448 20.999 2.67371L13.1064 9.93347L11.5771 8.52722C11.5771 8.52722 11.5742 8.52429 11.5684 8.51843C11.5625 8.51257 11.5596 8.50964 11.5596 8.50964C11.5479 8.49792 11.5332 8.48328 11.5156 8.4657C11.498 8.44812 11.4775 8.43347 11.4541 8.42175L5.19629 2.65613C5.05566 2.53894 4.89746 2.48621 4.72168 2.49792C4.5459 2.50964 4.39355 2.57996 4.26465 2.70886C4.14746 2.84949 4.09473 3.01355 4.10645 3.20105C4.11816 3.38855 4.18848 3.54089 4.31738 3.65808L10.1182 8.98425L4.35254 14.5214C4.22363 14.6503 4.15625 14.8055 4.15039 14.9872C4.14453 15.1688 4.2002 15.33 4.31738 15.4706C4.3877 15.5409 4.46387 15.5936 4.5459 15.6288C4.62793 15.6639 4.70996 15.6815 4.79199 15.6815C4.87402 15.6815 4.95312 15.6669 5.0293 15.6376C5.10547 15.6083 5.17871 15.5643 5.24902 15.5057L11.085 9.88074L12.6846 11.3397C12.7432 11.3983 12.8105 11.4393 12.8867 11.4628C12.9629 11.4862 13.042 11.4979 13.124 11.4979C13.1943 11.4979 13.2676 11.4833 13.3438 11.454C13.4199 11.4247 13.4873 11.3866 13.5459 11.3397L15.1807 9.828L20.999 15.5057C21.0576 15.5643 21.1279 15.6083 21.21 15.6376C21.292 15.6669 21.374 15.6815 21.4561 15.6815C21.5381 15.6815 21.6201 15.6669 21.7021 15.6376C21.7842 15.6083 21.8604 15.5585 21.9307 15.4882C22.0479 15.3475 22.1035 15.1835 22.0977 14.996C22.0918 14.8085 22.0244 14.6561 21.8955 14.5389L16.1475 8.93152Z" fill="#374793"/>
</g>
<defs>
<clipPath id="clip0_1_53">
<rect width="24" height="18" fill="white" transform="matrix(1 0 0 -1 0.5 18.0897)"/>
</clipPath>
</defs>
</svg>
