<svg width="19" height="19" viewBox="0 0 19 19" fill="none" xmlns="http://www.w3.org/2000/svg">
<g id="Icon" clip-path="url(#clip0_1_47)">
<path id="Vector" d="M15.5188 18.0897L11.0339 13.9413H0.446053V0.0897217H18.5439V13.9413H15.4133L15.5188 18.0897ZM1.6772 12.7108H11.5264L14.2173 15.2069L14.147 12.7108H17.3304V1.32019H1.6772V12.7108ZM6.40833 7.64832C6.40833 7.64832 6.40833 7.65417 6.40833 7.66589C6.40833 7.67761 6.40833 7.68347 6.40833 7.68347C6.40833 7.85925 6.37022 8.02332 6.29401 8.17566C6.2178 8.328 6.1152 8.45691 5.98622 8.56238C5.84552 8.66785 5.6843 8.74988 5.50256 8.80847C5.32082 8.86707 5.13028 8.89636 4.93095 8.89636C4.91923 8.89636 4.90164 8.89636 4.87819 8.89636C4.85474 8.89636 4.83715 8.89636 4.82543 8.89636C4.8137 8.89636 4.80491 8.89636 4.79904 8.89636C4.79318 8.89636 4.78439 8.89636 4.77266 8.89636C4.56161 8.89636 4.35642 8.87292 4.15709 8.82605C3.95776 8.77917 3.77015 8.71472 3.59428 8.63269H3.61186V7.78894C3.71739 7.83582 3.82878 7.88269 3.94603 7.92957C4.06329 7.97644 4.1864 8.01746 4.31538 8.05261H4.35055C4.43263 8.07605 4.52057 8.09656 4.61437 8.11414C4.70817 8.13171 4.80197 8.1405 4.89578 8.1405C4.9075 8.1405 4.9163 8.1405 4.92216 8.1405C4.92802 8.1405 4.93681 8.1405 4.94854 8.1405C5.01889 8.1405 5.08924 8.12878 5.15959 8.10535C5.22995 8.08191 5.29443 8.05261 5.35306 8.01746C5.39996 7.9823 5.43807 7.93835 5.46738 7.88562C5.49669 7.83289 5.51135 7.77136 5.51135 7.70105C5.51135 7.70105 5.51135 7.69812 5.51135 7.69226C5.51135 7.6864 5.51135 7.68347 5.51135 7.68347C5.51135 7.6366 5.50549 7.59558 5.49376 7.56042C5.48204 7.52527 5.46445 7.49011 5.441 7.45496C5.41755 7.4198 5.38824 7.38757 5.35306 7.35828C5.31788 7.32898 5.28271 7.30261 5.24753 7.27917C5.16546 7.2323 5.08045 7.18542 4.99251 7.13855C4.90457 7.09167 4.8137 7.0448 4.7199 6.99792L4.68472 6.98035C4.56747 6.93347 4.46194 6.88074 4.36814 6.82214C4.27434 6.76355 4.18054 6.6991 4.08674 6.62878H4.10432C4.03397 6.57019 3.97535 6.50867 3.92845 6.44421C3.88154 6.37976 3.83464 6.31238 3.78774 6.24207C3.75257 6.16003 3.72325 6.078 3.6998 5.99597C3.67635 5.91394 3.66463 5.82605 3.66463 5.7323C3.66463 5.7323 3.66463 5.72937 3.66463 5.72351C3.66463 5.71765 3.66463 5.71472 3.66463 5.71472C3.66463 5.703 3.66463 5.69128 3.66463 5.67957C3.66463 5.66785 3.66463 5.66199 3.66463 5.66199C3.66463 5.48621 3.6998 5.328 3.77015 5.18738C3.84051 5.04675 3.93431 4.92371 4.05156 4.81824C4.19226 4.71277 4.34469 4.63074 4.50884 4.57214C4.673 4.51355 4.84301 4.48425 5.01889 4.48425C5.04234 4.48425 5.06286 4.48425 5.08045 4.48425C5.09804 4.48425 5.11269 4.49011 5.12442 4.50183C5.12442 4.50183 5.12735 4.50183 5.13321 4.50183C5.13908 4.50183 5.14201 4.50183 5.14201 4.50183C5.24753 4.50183 5.35306 4.50769 5.45859 4.51941C5.56411 4.53113 5.66964 4.54871 5.77517 4.57214H5.75758C5.88656 4.6073 6.00381 4.64246 6.10934 4.67761C6.21486 4.71277 6.32039 4.75378 6.42592 4.80066H6.39074L6.09175 5.50378C6.00967 5.46863 5.92467 5.43347 5.83673 5.39832C5.74879 5.36316 5.65205 5.33386 5.54653 5.31042H5.52894C5.45859 5.28699 5.3853 5.27234 5.30909 5.26648C5.23288 5.26062 5.15959 5.25183 5.08924 5.24011C5.07752 5.24011 5.06872 5.24011 5.06286 5.24011C5.057 5.24011 5.05407 5.24011 5.05407 5.24011C4.98372 5.24011 4.9163 5.25183 4.85181 5.27527C4.78732 5.29871 4.73162 5.328 4.68472 5.36316C4.64955 5.39832 4.6173 5.44226 4.58799 5.495C4.55868 5.54773 4.54402 5.60339 4.54402 5.66199C4.54402 5.66199 4.54402 5.66492 4.54402 5.67078C4.54402 5.67664 4.54402 5.67957 4.54402 5.67957C4.54402 5.71472 4.54988 5.74988 4.56161 5.78503C4.57333 5.82019 4.59092 5.85535 4.61437 5.8905C4.63782 5.92566 4.6642 5.95496 4.69352 5.97839C4.72283 6.00183 4.75507 6.02527 4.79025 6.04871C4.8606 6.1073 4.94268 6.16003 5.03648 6.20691C5.13028 6.25378 5.22408 6.30066 5.31788 6.34753L5.35306 6.36511C5.51721 6.43542 5.66964 6.51746 5.81034 6.61121C5.95105 6.70496 6.07416 6.81042 6.17969 6.92761C6.25004 7.02136 6.30574 7.12683 6.34677 7.24402C6.38781 7.36121 6.40833 7.48425 6.40833 7.61316C6.40833 7.61316 6.40833 7.61609 6.40833 7.62195C6.40833 7.62781 6.40833 7.6366 6.40833 7.64832ZM8.99374 8.82605L7.95606 5.46863H7.93847C7.9502 5.80847 7.96192 6.09265 7.97365 6.32117C7.98537 6.54968 7.99124 6.72253 7.99124 6.83972V8.82605H7.1822V4.55457H8.41335L9.41585 7.8241H9.43344L10.5063 4.55457H11.7374V8.82605H10.9108V6.80457C10.9108 6.75769 10.9108 6.70789 10.9108 6.65515C10.9108 6.60242 10.9108 6.54089 10.9108 6.47058C10.9108 6.41199 10.9108 6.30066 10.9108 6.1366C10.9108 5.97253 10.9225 5.75574 10.946 5.48621H10.9108L9.82037 8.82605H8.99374ZM15.343 7.64832C15.343 7.64832 15.3459 7.65417 15.3517 7.66589C15.3576 7.67761 15.3605 7.68933 15.3605 7.70105C15.3605 7.87683 15.3224 8.03796 15.2462 8.18445C15.17 8.33093 15.0674 8.45691 14.9384 8.56238C14.786 8.66785 14.6219 8.74988 14.446 8.80847C14.2701 8.86707 14.0825 8.89636 13.8832 8.89636C13.8597 8.89636 13.8392 8.89636 13.8216 8.89636C13.804 8.89636 13.7835 8.89636 13.76 8.89636H13.7776C13.7659 8.89636 13.7542 8.89636 13.7425 8.89636C13.7307 8.89636 13.7249 8.89636 13.7249 8.89636C13.5138 8.89636 13.3086 8.87292 13.1093 8.82605C12.91 8.77917 12.7224 8.71472 12.5465 8.63269H12.5641V7.78894C12.6696 7.83582 12.781 7.88269 12.8982 7.92957C13.0155 7.97644 13.1327 8.01746 13.25 8.05261H13.3028C13.3848 8.07605 13.4698 8.09656 13.5578 8.11414C13.6457 8.13171 13.7425 8.1405 13.848 8.1405C13.848 8.1405 13.8539 8.1405 13.8656 8.1405C13.8773 8.1405 13.889 8.1405 13.9008 8.1405C13.9711 8.1405 14.0415 8.12878 14.1118 8.10535C14.1822 8.08191 14.2466 8.05261 14.3053 8.01746C14.3522 7.9823 14.3903 7.93835 14.4196 7.88562C14.4489 7.83289 14.4636 7.77136 14.4636 7.70105C14.4636 7.70105 14.4636 7.69812 14.4636 7.69226C14.4636 7.6864 14.4636 7.68347 14.4636 7.68347C14.4636 7.6366 14.4577 7.59558 14.446 7.56042C14.4342 7.52527 14.4167 7.49011 14.3932 7.45496C14.358 7.4198 14.3258 7.38757 14.2965 7.35828C14.2672 7.32898 14.2291 7.30261 14.1822 7.27917C14.1118 7.2323 14.0327 7.18542 13.9447 7.13855C13.8568 7.09167 13.7659 7.0448 13.6721 6.99792L13.6369 6.98035C13.5314 6.93347 13.4288 6.88074 13.3291 6.82214C13.2295 6.76355 13.1386 6.6991 13.0565 6.62878C12.9862 6.57019 12.9246 6.50867 12.8719 6.44421C12.8191 6.37976 12.7693 6.30652 12.7224 6.22449C12.6872 6.15417 12.6579 6.07507 12.6344 5.98718C12.611 5.89929 12.5993 5.81433 12.5993 5.7323C12.5993 5.72058 12.5993 5.71179 12.5993 5.70593C12.5993 5.70007 12.5993 5.69714 12.5993 5.69714C12.5993 5.68542 12.5993 5.67664 12.5993 5.67078C12.5993 5.66492 12.5993 5.65613 12.5993 5.64441C12.5993 5.48035 12.6344 5.32507 12.7048 5.17859C12.7751 5.0321 12.8689 4.90613 12.9862 4.80066C13.1152 4.70691 13.2647 4.63074 13.4347 4.57214C13.6047 4.51355 13.7776 4.48425 13.9535 4.48425C13.977 4.48425 13.9946 4.48425 14.0063 4.48425C14.018 4.48425 14.0356 4.48425 14.059 4.48425C14.059 4.48425 14.0649 4.48425 14.0766 4.48425C14.1822 4.48425 14.2877 4.49011 14.3932 4.50183C14.4987 4.51355 14.6043 4.53699 14.7098 4.57214L14.6922 4.55457C14.8095 4.58972 14.9238 4.62781 15.0352 4.66882C15.1466 4.70984 15.2492 4.75378 15.343 4.80066L15.3254 4.78308L15.0088 5.48621C14.9384 5.45105 14.8593 5.41882 14.7713 5.38953C14.6834 5.36023 14.5925 5.33386 14.4987 5.31042H14.4636C14.4049 5.28699 14.3375 5.26941 14.2613 5.25769C14.1851 5.24597 14.1059 5.24011 14.0239 5.24011C14.0239 5.24011 14.0209 5.24011 14.0151 5.24011C14.0092 5.24011 14.0004 5.24011 13.9887 5.24011C13.9183 5.24011 13.8539 5.25183 13.7952 5.27527C13.7366 5.29871 13.6838 5.328 13.6369 5.36316C13.59 5.39832 13.5549 5.44226 13.5314 5.495C13.508 5.54773 13.4962 5.60339 13.4962 5.66199C13.4962 5.66199 13.4962 5.66492 13.4962 5.67078C13.4962 5.67664 13.4962 5.67957 13.4962 5.67957C13.4962 5.71472 13.5021 5.74988 13.5138 5.78503C13.5255 5.82019 13.5373 5.85535 13.549 5.8905C13.5724 5.92566 13.5988 5.95496 13.6281 5.97839C13.6575 6.00183 13.6897 6.02527 13.7249 6.04871C13.807 6.1073 13.8949 6.16003 13.9887 6.20691C14.0825 6.25378 14.1763 6.30066 14.2701 6.34753L14.3053 6.36511C14.4694 6.43542 14.6189 6.51746 14.7538 6.61121C14.8886 6.70496 15.0146 6.81042 15.1319 6.92761C15.2023 7.02136 15.255 7.12683 15.2902 7.24402C15.3254 7.36121 15.343 7.48425 15.343 7.61316C15.343 7.61316 15.343 7.61609 15.343 7.62195C15.343 7.62781 15.343 7.6366 15.343 7.64832Z" fill="#374793"/>
</g>
<defs>
<clipPath id="clip0_1_47">
<rect width="18.1" height="18" fill="white" transform="matrix(1 0 0 -1 0.445 18.0897)"/>
</clipPath>
</defs>
</svg>
