<svg width="13" height="19" viewBox="0 0 13 19" fill="none" xmlns="http://www.w3.org/2000/svg">
<g id="Icon" clip-path="url(#clip0_1_59)">
<path id="Vector" d="M6.48121 0.0897217C5.6609 0.0897217 4.88746 0.253784 4.1609 0.581909C3.42262 0.921753 2.78394 1.37585 2.24488 1.94421C1.70582 2.51257 1.27808 3.18347 0.961678 3.95691C0.645271 4.73035 0.487068 5.55066 0.487068 6.41785C0.487068 7.00378 0.56324 7.58093 0.715584 8.14929C0.867928 8.71765 1.09058 9.24792 1.38355 9.74011L6.14722 17.8436C6.1941 17.9139 6.25562 17.9725 6.33179 18.0194C6.40797 18.0663 6.48707 18.0897 6.5691 18.0897C6.66285 18.0897 6.74781 18.0663 6.82398 18.0194C6.90015 17.9725 6.95582 17.9081 6.99097 17.826L11.6492 9.65222C11.9187 9.17175 12.1267 8.65613 12.2732 8.10535C12.4197 7.55457 12.4929 6.99207 12.4929 6.41785C12.4929 5.55066 12.3347 4.73035 12.0183 3.95691C11.7019 3.18347 11.2712 2.51257 10.7263 1.94421C10.1814 1.37585 9.54566 0.921753 8.8191 0.581909C8.09254 0.253784 7.31324 0.0897217 6.48121 0.0897217ZM10.7878 9.12488L6.5691 16.5428L2.2273 9.19519C1.98121 8.77332 1.79664 8.328 1.67359 7.85925C1.55054 7.3905 1.48902 6.91003 1.48902 6.41785C1.48902 5.69128 1.61793 5.00574 1.87574 4.36121C2.13355 3.72839 2.49097 3.17175 2.94801 2.69128C3.40504 2.21082 3.93824 1.82996 4.54762 1.54871C5.15699 1.27917 5.80152 1.14441 6.48121 1.14441C7.17262 1.14441 7.82301 1.27917 8.43238 1.54871C9.04176 1.82996 9.57203 2.21082 10.0232 2.69128C10.4744 3.17175 10.8347 3.72839 11.1043 4.36121C11.3621 5.00574 11.491 5.69128 11.491 6.41785C11.491 6.89832 11.4295 7.36707 11.3064 7.8241C11.1834 8.28113 11.0105 8.71472 10.7878 9.12488ZM6.48121 3.09558C5.6609 3.09558 4.95777 3.38855 4.37183 3.97449C3.7859 4.56042 3.49293 5.26355 3.49293 6.08386C3.49293 6.90417 3.78297 7.61023 4.36304 8.20203C4.94312 8.79382 5.64918 9.08972 6.48121 9.08972C7.33668 9.08972 8.05152 8.79382 8.62574 8.20203C9.19996 7.61023 9.48707 6.90417 9.48707 6.08386C9.48707 5.26355 9.1941 4.56042 8.60816 3.97449C8.02222 3.38855 7.31324 3.09558 6.48121 3.09558ZM6.48121 8.08777C5.93043 8.08777 5.45875 7.89441 5.06617 7.50769C4.67359 7.12097 4.4773 6.64636 4.4773 6.08386C4.4773 5.53308 4.67359 5.0614 5.06617 4.66882C5.45875 4.27625 5.93043 4.07996 6.48121 4.07996C7.03199 4.07996 7.50367 4.27625 7.89625 4.66882C8.28883 5.0614 8.48512 5.53308 8.48512 6.08386C8.48512 6.63464 8.29176 7.10632 7.90504 7.4989C7.51832 7.89148 7.04371 8.08777 6.48121 8.08777Z" fill="#374793"/>
</g>
<defs>
<clipPath id="clip0_1_59">
<rect width="12.02" height="18" fill="white" transform="matrix(1 0 0 -1 0.48 18.0897)"/>
</clipPath>
</defs>
</svg>
