<svg width="19" height="19" viewBox="0 0 19 19" fill="none" xmlns="http://www.w3.org/2000/svg">
<g id="Icon" clip-path="url(#clip0_1_129)">
<path id="Vector" d="M18.5202 8.7207C18.5084 8.13477 18.4381 7.56055 18.3092 6.99805C18.1803 6.43555 18.0016 5.89062 17.7731 5.36328C17.5446 4.83594 17.2663 4.33789 16.9381 3.86914C16.5983 3.40039 16.2174 2.96094 15.7955 2.55078C15.3737 2.14062 14.9166 1.7832 14.4245 1.47852C13.944 1.16211 13.4371 0.901367 12.9039 0.696289C12.3707 0.491211 11.8229 0.335938 11.2604 0.230469C10.6862 0.125 10.1061 0.078125 9.52016 0.0898438C8.93422 0.078125 8.35414 0.125 7.77992 0.230469C7.21742 0.335938 6.66957 0.491211 6.13637 0.696289C5.60316 0.901367 5.09633 1.16211 4.61586 1.47852C4.12367 1.7832 3.66664 2.14062 3.24477 2.55078C2.81117 2.96094 2.43031 3.40039 2.10219 3.86914C1.77406 4.33789 1.49574 4.83594 1.26723 5.36328C1.03871 5.89062 0.860001 6.43555 0.731094 6.99805C0.602188 7.56055 0.531876 8.13477 0.520157 8.7207V8.73828C0.520157 9.33594 0.58461 9.92773 0.713516 10.5137C0.842422 11.0879 1.02699 11.6445 1.26723 12.1836C1.50746 12.7227 1.80336 13.2266 2.15492 13.6953C2.50648 14.1758 2.90492 14.6152 3.35023 15.0137V17.1934C3.35023 17.4043 3.41469 17.5918 3.54359 17.7559C3.6725 17.9199 3.84242 18.0254 4.05336 18.0723C4.0768 18.0723 4.10316 18.0752 4.13246 18.0811C4.16176 18.0869 4.19398 18.0898 4.22914 18.0898C4.31117 18.0898 4.39027 18.0781 4.46645 18.0547C4.54262 18.0312 4.61586 17.9961 4.68617 17.9492L6.44398 16.8594C6.93617 17.0352 7.43715 17.167 7.94691 17.2549C8.45668 17.3428 8.97523 17.3867 9.50258 17.3867H9.52016C9.54359 17.3867 9.56996 17.3867 9.59926 17.3867C9.62856 17.3867 9.66078 17.3867 9.69594 17.3867C10.2584 17.3867 10.8209 17.334 11.3834 17.2285C11.9342 17.123 12.4674 16.9648 12.983 16.7539C13.4987 16.543 13.9909 16.2852 14.4596 15.9805C14.9401 15.6758 15.3854 15.3242 15.7955 14.9258C16.2174 14.5156 16.5983 14.0762 16.9381 13.6074C17.2663 13.1387 17.5446 12.6406 17.7731 12.1133C18.0016 11.5859 18.1803 11.041 18.3092 10.4785C18.4381 9.91602 18.5084 9.3418 18.5202 8.75586V8.73828V8.7207ZM15.0748 14.1699C14.6998 14.5215 14.2955 14.8379 13.862 15.1191C13.4284 15.3887 12.9772 15.6143 12.5084 15.7959C12.0397 15.9775 11.5592 16.1152 11.067 16.209C10.5631 16.3027 10.0534 16.3438 9.53773 16.332H9.52016C9.02797 16.332 8.54457 16.2881 8.06996 16.2002C7.59535 16.1123 7.12953 15.9863 6.6725 15.8223C6.55531 15.7871 6.43813 15.7754 6.32094 15.7871C6.20375 15.7988 6.09828 15.834 6.00453 15.8926L4.40492 16.8945V14.8906C4.40492 14.7852 4.38148 14.6797 4.33461 14.5742C4.28773 14.4688 4.22328 14.3809 4.14125 14.3105C3.73109 13.959 3.36781 13.5723 3.05141 13.1504C2.735 12.7285 2.4684 12.2803 2.2516 11.8057C2.03481 11.3311 1.86781 10.8359 1.75063 10.3203C1.63344 9.80469 1.57484 9.27734 1.57484 8.73828C1.58656 8.22266 1.65102 7.71875 1.7682 7.22656C1.87367 6.72266 2.02895 6.24219 2.23402 5.78516C2.4391 5.32812 2.68813 4.88867 2.98109 4.4668C3.26234 4.05664 3.59047 3.66992 3.96547 3.30664C4.34047 2.95508 4.74477 2.63867 5.17836 2.35742C5.61195 2.08789 6.06313 1.8623 6.53188 1.68066C7.00063 1.49902 7.48109 1.36133 7.97328 1.26758C8.47719 1.17383 8.98695 1.13281 9.50258 1.14453H9.52016H9.53773C10.0534 1.13281 10.5631 1.17383 11.067 1.26758C11.5592 1.36133 12.0397 1.49902 12.5084 1.68066C12.9772 1.8623 13.4284 2.08789 13.862 2.35742C14.2955 2.63867 14.6998 2.95508 15.0748 3.30664C15.4381 3.66992 15.7663 4.05664 16.0592 4.4668C16.3522 4.88867 16.6012 5.32812 16.8063 5.78516C17.0114 6.24219 17.1666 6.72266 17.2721 7.22656C17.3893 7.71875 17.4538 8.22266 17.4655 8.73828C17.4538 9.25391 17.3893 9.75781 17.2721 10.25C17.1666 10.7539 17.0114 11.2344 16.8063 11.6914C16.6012 12.1484 16.3522 12.5879 16.0592 13.0098C15.7663 13.4199 15.4381 13.8066 15.0748 14.1699ZM10.9791 11.1465V7.50781C10.9791 7.23828 10.8825 7.00684 10.6891 6.81348C10.4957 6.62012 10.2643 6.52344 9.99477 6.52344H8.21938C7.94984 6.52344 7.72133 6.62012 7.53383 6.81348C7.34633 7.00684 7.25258 7.23828 7.25258 7.50781V8.42188C7.25258 8.65625 7.32875 8.86426 7.48109 9.0459C7.63344 9.22754 7.82094 9.33594 8.04359 9.37109V11.1641C7.82094 11.2109 7.63344 11.3223 7.48109 11.498C7.32875 11.6738 7.25258 11.8789 7.25258 12.1133V13.0449C7.25258 13.3027 7.34633 13.5283 7.53383 13.7217C7.72133 13.915 7.94984 14.0117 8.21938 14.0117H10.8385C11.108 14.0117 11.3366 13.915 11.5241 13.7217C11.7116 13.5283 11.8053 13.3027 11.8053 13.0449V12.1133C11.8053 11.8672 11.7262 11.6533 11.568 11.4717C11.4098 11.29 11.2135 11.1816 10.9791 11.1465ZM10.7506 12.957H8.30727V12.2012H8.46547C8.64125 12.2012 8.79066 12.1396 8.91371 12.0166C9.03676 11.8936 9.09828 11.7441 9.09828 11.5684V8.9668C9.09828 8.79102 9.03676 8.6416 8.91371 8.51855C8.79066 8.39551 8.64125 8.33398 8.46547 8.33398H8.30727V7.57812H9.90688V11.5508C9.90688 11.7266 9.97133 11.876 10.1002 11.999C10.2291 12.1221 10.3815 12.1836 10.5573 12.1836H10.7506V12.957ZM9.44984 6.20703C9.87172 6.20703 10.2321 6.05762 10.5309 5.75879C10.8297 5.45996 10.9791 5.09961 10.9791 4.67773C10.9791 4.25586 10.8297 3.89551 10.5309 3.59668C10.2321 3.29785 9.87172 3.14844 9.44984 3.14844C9.02797 3.14844 8.66469 3.29785 8.36 3.59668C8.05531 3.89551 7.90297 4.25586 7.90297 4.67773C7.90297 5.09961 8.05531 5.45996 8.36 5.75879C8.66469 6.05762 9.02797 6.20703 9.44984 6.20703ZM9.44984 4.20312C9.57875 4.20312 9.69008 4.25 9.78383 4.34375C9.87758 4.4375 9.92445 4.54883 9.92445 4.67773C9.92445 4.80664 9.87758 4.91797 9.78383 5.01172C9.69008 5.10547 9.57875 5.15234 9.44984 5.15234C9.30922 5.15234 9.19203 5.10547 9.09828 5.01172C9.00453 4.91797 8.95766 4.80664 8.95766 4.67773C8.95766 4.54883 9.00453 4.4375 9.09828 4.34375C9.19203 4.25 9.30922 4.20312 9.44984 4.20312Z" fill="#374793"/>
</g>
<defs>
<clipPath id="clip0_1_129">
<rect width="17.97" height="18" fill="white" transform="matrix(1 0 0 -1 0.5 18.0898)"/>
</clipPath>
</defs>
</svg>
