<svg width="19" height="19" viewBox="0 0 19 19" fill="none" xmlns="http://www.w3.org/2000/svg">
<g id="Icon" clip-path="url(#clip0_1_148)">
<path id="Vector" d="M18.5 9.10736C18.5 9.10736 18.5 9.10443 18.5 9.09857C18.5 9.09271 18.5 9.08978 18.5 9.08978C18.5 8.49213 18.4414 7.90033 18.3242 7.31439C18.207 6.74017 18.0371 6.18353 17.8145 5.64447C17.5918 5.10541 17.3164 4.58978 16.9883 4.0976C16.6602 3.60541 16.2852 3.14838 15.8633 2.7265C15.4414 2.30463 14.9844 1.92963 14.4922 1.6015C14 1.27338 13.4844 0.997986 12.9453 0.77533C12.4062 0.552673 11.8496 0.382751 11.2754 0.265564C10.6895 0.148376 10.0977 0.0897827 9.5 0.0897827C8.90234 0.0897827 8.31055 0.148376 7.72461 0.265564C7.15039 0.382751 6.59375 0.552673 6.05469 0.77533C5.51562 0.997986 5 1.27338 4.50781 1.6015C4.01562 1.92963 3.55859 2.30463 3.13672 2.7265C2.71484 3.14838 2.33984 3.60541 2.01172 4.0976C1.68359 4.58978 1.4082 5.10541 1.18555 5.64447C0.962891 6.18353 0.792969 6.74017 0.675781 7.31439C0.558594 7.90033 0.5 8.49213 0.5 9.08978C0.5 9.08978 0.5 9.09271 0.5 9.09857C0.5 9.10443 0.5 9.10736 0.5 9.10736C0.5 9.70502 0.558594 10.2968 0.675781 10.8828C0.792969 11.457 0.962891 12.0107 1.18555 12.5439C1.4082 13.0771 1.68359 13.5898 2.01172 14.082C2.33984 14.5742 2.71484 15.0312 3.13672 15.4531C3.55859 15.8749 4.01562 16.2499 4.50781 16.5781C5 16.9062 5.51562 17.1816 6.05469 17.4042C6.59375 17.6269 7.15039 17.7968 7.72461 17.914C8.31055 18.0312 8.90234 18.0898 9.5 18.0898C9.61719 18.0898 9.7373 18.0869 9.86035 18.081C9.9834 18.0751 10.1035 18.0663 10.2207 18.0546C10.7598 18.0195 11.2812 17.9316 11.7852 17.791C12.3008 17.662 12.7959 17.4863 13.2705 17.2636C13.7451 17.041 14.1992 16.7831 14.6328 16.4902C15.0664 16.1855 15.4766 15.8398 15.8633 15.4531C16.2852 15.0312 16.6602 14.5742 16.9883 14.082C17.3164 13.5898 17.5918 13.0771 17.8145 12.5439C18.0371 12.0107 18.207 11.457 18.3242 10.8828C18.4414 10.2968 18.5 9.70502 18.5 9.10736ZM16.7773 12.289H13.7363C13.877 11.7851 13.9854 11.3105 14.0615 10.8652C14.1377 10.4199 14.1816 10.0097 14.1934 9.6347H17.4277C17.3926 10.1035 17.3223 10.5605 17.2168 11.0058C17.1113 11.4511 16.9648 11.8788 16.7773 12.289ZM2.22266 5.89056H5.26367C5.11133 6.40619 5 6.88959 4.92969 7.34076C4.85938 7.79193 4.8125 8.20502 4.78906 8.58002H1.57227C1.5957 8.11127 1.66309 7.65131 1.77441 7.20013C1.88574 6.74896 2.03516 6.31244 2.22266 5.89056ZM10.0273 4.83588V1.26752C10.25 1.52533 10.5811 1.96478 11.0205 2.58588C11.46 3.20697 11.8672 3.95697 12.2422 4.83588H10.0273ZM12.6465 5.89056C12.7754 6.30072 12.8867 6.73138 12.9805 7.18256C13.0742 7.63373 13.1328 8.09955 13.1562 8.58002H10.0273V5.89056H12.6465ZM8.97266 4.83588H6.75781C6.88672 4.55463 7.0127 4.28802 7.13574 4.03607C7.25879 3.78412 7.38477 3.55853 7.51367 3.35931C7.79492 2.86713 8.07031 2.44525 8.33984 2.09369C8.60938 1.74213 8.82031 1.4726 8.97266 1.2851V4.83588ZM8.97266 5.89056V8.58002H5.84375C5.87891 8.09955 5.94043 7.63373 6.02832 7.18256C6.11621 6.73138 6.23047 6.30072 6.37109 5.89056H8.97266ZM1.57227 9.6347H4.80664C4.83008 10.1035 4.88281 10.5605 4.96484 11.0058C5.04688 11.4511 5.14648 11.8788 5.26367 12.289H2.22266C2.03516 11.8788 1.88867 11.4511 1.7832 11.0058C1.67773 10.5605 1.60742 10.1035 1.57227 9.6347ZM5.86133 9.6347H8.97266V12.289H6.37109C6.24219 11.8788 6.13086 11.4511 6.03711 11.0058C5.94336 10.5605 5.88477 10.1035 5.86133 9.6347ZM8.97266 13.3437V16.8945C8.75 16.6249 8.42188 16.1826 7.98828 15.5673C7.55469 14.9521 7.15039 14.2109 6.77539 13.3437H8.97266ZM10.0273 13.3437H12.2246C12.1074 13.6249 11.9844 13.8886 11.8555 14.1347C11.7266 14.3808 11.6035 14.6093 11.4863 14.8203C11.2051 15.3124 10.9297 15.7372 10.6602 16.0947C10.3906 16.4521 10.1797 16.7187 10.0273 16.8945V13.3437ZM10.0273 12.289V9.6347H13.1387C13.1152 10.1152 13.0566 10.5781 12.9629 11.0234C12.8691 11.4687 12.7578 11.8906 12.6289 12.289H10.0273ZM14.2109 8.58002C14.1875 8.1347 14.1377 7.68646 14.0615 7.23529C13.9854 6.78412 13.8828 6.33588 13.7539 5.89056H16.7773C16.9648 6.31244 17.1143 6.74896 17.2256 7.20013C17.3369 7.65131 17.4043 8.11127 17.4277 8.58002H14.2109ZM16.2148 4.83588H13.3848C13.2676 4.54291 13.1387 4.24701 12.998 3.94818C12.8574 3.64935 12.7051 3.35345 12.541 3.06049C12.3652 2.73236 12.1836 2.42767 11.9961 2.14642C11.8086 1.86517 11.6328 1.61322 11.4688 1.39056C12.1602 1.56635 12.8135 1.83002 13.4287 2.18158C14.0439 2.53314 14.6094 2.96088 15.125 3.46478C15.3242 3.67572 15.5176 3.89545 15.7051 4.12396C15.8926 4.35248 16.0625 4.58978 16.2148 4.83588ZM3.875 3.46478C4.39062 2.94916 4.95898 2.51556 5.58008 2.164C6.20117 1.81244 6.85742 1.55463 7.54883 1.39056C7.4082 1.57806 7.25879 1.789 7.10059 2.02338C6.94238 2.25775 6.78125 2.51556 6.61719 2.79681C6.40625 3.14838 6.21875 3.49408 6.05469 3.83392C5.89062 4.17377 5.75 4.50775 5.63281 4.83588H2.78516C2.9375 4.58978 3.10742 4.35248 3.29492 4.12396C3.48242 3.89545 3.67578 3.67572 3.875 3.46478ZM2.78516 13.3437H5.63281C5.78516 13.7304 5.94629 14.0937 6.11621 14.4335C6.28613 14.7734 6.45312 15.0839 6.61719 15.3652C6.78125 15.6464 6.94238 15.9072 7.10059 16.1474C7.25879 16.3876 7.4082 16.6015 7.54883 16.789C6.86914 16.6249 6.21582 16.3671 5.58887 16.0156C4.96191 15.664 4.39062 15.2304 3.875 14.7148C3.67578 14.5038 3.48242 14.2841 3.29492 14.0556C3.10742 13.8271 2.9375 13.5898 2.78516 13.3437ZM15.125 14.7148C14.6094 15.2187 14.041 15.6494 13.4199 16.0068C12.7988 16.3642 12.1426 16.6249 11.4512 16.789C11.5918 16.6015 11.7412 16.3876 11.8994 16.1474C12.0576 15.9072 12.2188 15.6464 12.3828 15.3652C12.5938 15.0136 12.7783 14.6708 12.9365 14.3369C13.0947 14.0029 13.2383 13.6718 13.3672 13.3437H16.2148C16.0625 13.5898 15.8926 13.8271 15.7051 14.0556C15.5176 14.2841 15.3242 14.5038 15.125 14.7148Z" fill="#374793"/>
</g>
<defs>
<clipPath id="clip0_1_148">
<rect width="18" height="18" fill="white" transform="matrix(1 0 0 -1 0.5 18.0898)"/>
</clipPath>
</defs>
</svg>
