<svg width="19" height="19" viewBox="0 0 19 19" fill="none" xmlns="http://www.w3.org/2000/svg">
<g id="Icon" clip-path="url(#clip0_1_89)">
<path id="Vector" d="M16.0391 9.17761H15.1074C15.1074 8.42761 14.9668 7.72449 14.6855 7.06824C14.4043 6.41199 14.0176 5.83777 13.5254 5.34558C13.0332 4.85339 12.459 4.46667 11.8027 4.18542C11.1348 3.89246 10.4258 3.74597 9.67578 3.74597V2.83191C10.5547 2.83191 11.3809 3.00183 12.1543 3.34167C12.9277 3.6698 13.6016 4.12097 14.1758 4.69519C14.75 5.26941 15.2012 5.94324 15.5293 6.71667C15.8691 7.49011 16.0391 8.31042 16.0391 9.17761ZM9.67578 4.41394V5.328C10.2148 5.328 10.7188 5.43347 11.1875 5.64441C11.6445 5.84363 12.0488 6.11609 12.4004 6.46179C12.752 6.8075 13.0273 7.21472 13.2266 7.68347C13.4258 8.15222 13.5254 8.65027 13.5254 9.17761H14.4395C14.4395 8.52136 14.3164 7.90613 14.0703 7.33191C13.8242 6.75769 13.4844 6.25378 13.0508 5.82019C12.6172 5.3866 12.1133 5.04675 11.5391 4.80066C10.9648 4.54285 10.3438 4.41394 9.67578 4.41394ZM9.5 0.0897217C8.25781 0.0897217 7.0918 0.324097 6.00195 0.792847C4.91211 1.27332 3.95996 1.92078 3.14551 2.73523C2.33105 3.54968 1.68359 4.50183 1.20312 5.59167C0.734375 6.68152 0.5 7.84753 0.5 9.08972C0.5 10.3319 0.734375 11.4979 1.20312 12.5878C1.68359 13.6776 2.33105 14.6298 3.14551 15.4442C3.95996 16.2587 4.91211 16.9061 6.00195 17.3866C7.0918 17.8553 8.25781 18.0897 9.5 18.0897C9.65234 18.0897 9.78418 18.037 9.89551 17.9315C10.0068 17.826 10.0625 17.6913 10.0625 17.5272C10.0625 17.3749 10.0068 17.246 9.89551 17.1405C9.78418 17.035 9.65234 16.9823 9.5 16.9823C8.41016 16.9823 7.38477 16.7714 6.42383 16.3495C5.47461 15.9393 4.64258 15.3768 3.92773 14.662C3.21289 13.9471 2.64453 13.1151 2.22266 12.1659C1.8125 11.205 1.60742 10.1796 1.60742 9.08972C1.60742 7.99988 1.8125 6.97449 2.22266 6.01355C2.64453 5.06433 3.21289 4.2323 3.92773 3.51746C4.64258 2.80261 5.47461 2.23425 6.42383 1.81238C7.38477 1.40222 8.41016 1.19714 9.5 1.19714C10.5898 1.19714 11.6152 1.40222 12.5762 1.81238C13.5254 2.23425 14.3574 2.80261 15.0723 3.51746C15.7871 4.2323 16.3496 5.06433 16.7598 6.01355C17.1816 6.97449 17.3926 7.99988 17.3926 9.08972C17.3926 10.0038 17.1729 10.868 16.7334 11.6825C16.2939 12.4969 15.7285 13.0917 15.0371 13.4667C14.791 13.6073 14.5303 13.7128 14.2549 13.7831C13.9795 13.8534 13.6953 13.8885 13.4023 13.8885C13.5781 13.7831 13.7422 13.66 13.8945 13.5194C14.0469 13.3788 14.1758 13.2206 14.2812 13.0448C14.3047 13.0096 14.3281 12.9774 14.3516 12.9481C14.375 12.9188 14.3984 12.8866 14.4219 12.8514C14.5039 12.6288 14.5596 12.4003 14.5889 12.1659C14.6182 11.9315 14.6621 11.6971 14.7207 11.4628C14.7559 11.3221 14.6387 11.1522 14.3691 10.953C14.0996 10.7655 13.7949 10.6044 13.4551 10.4696C13.1152 10.3348 12.7871 10.2557 12.4707 10.2323C12.166 10.2089 11.9844 10.285 11.9258 10.4608C11.8789 10.6014 11.8232 10.8358 11.7588 11.1639C11.6943 11.4921 11.6211 11.7089 11.5391 11.8143C11.457 11.9198 11.3369 11.955 11.1787 11.9198C11.0205 11.8846 10.8887 11.8202 10.7832 11.7264C10.4668 11.4686 10.1445 11.1639 9.81641 10.8124C9.48828 10.4608 9.17188 10.1327 8.86719 9.828C8.86719 9.81628 8.86133 9.80457 8.84961 9.79285C8.83789 9.78113 8.82617 9.77527 8.81445 9.77527C8.81445 9.76355 8.80859 9.75476 8.79688 9.7489C8.78516 9.74304 8.77344 9.73425 8.76172 9.72253C8.45703 9.41785 8.12891 9.10144 7.77734 8.77332C7.42578 8.44519 7.12109 8.12292 6.86328 7.80652C6.76953 7.70105 6.70508 7.56921 6.66992 7.41101C6.63477 7.25281 6.66992 7.13269 6.77539 7.05066C6.88086 6.96863 7.09766 6.89539 7.42578 6.83093C7.75391 6.76648 7.98828 6.71082 8.12891 6.66394C8.30469 6.60535 8.38086 6.42371 8.35742 6.11902C8.33398 5.80261 8.25488 5.47449 8.12012 5.13464C7.98535 4.7948 7.82422 4.49011 7.63672 4.22058C7.4375 3.95105 7.26758 3.83386 7.12695 3.86902C6.89258 3.92761 6.6582 3.97156 6.42383 4.00085C6.18945 4.03015 5.96094 4.08582 5.73828 4.16785C5.70312 4.19128 5.6709 4.21472 5.6416 4.23816C5.6123 4.2616 5.58008 4.28503 5.54492 4.30847C5.1582 4.55457 4.85938 4.87683 4.64844 5.27527C4.42578 5.67371 4.30273 6.1073 4.2793 6.57605C4.25586 7.0448 4.32617 7.52527 4.49023 8.01746C4.6543 8.50964 4.92383 8.97839 5.29883 9.42371C5.5918 9.76355 5.8877 10.0975 6.18652 10.4257C6.48535 10.7538 6.78711 11.076 7.0918 11.3925C7.10352 11.4042 7.1123 11.4159 7.11816 11.4276C7.12402 11.4393 7.13281 11.4452 7.14453 11.4452C7.15625 11.4569 7.16504 11.4657 7.1709 11.4716C7.17676 11.4774 7.18555 11.4862 7.19727 11.4979C7.51367 11.8026 7.87695 12.1659 8.28711 12.5878C8.69727 13.0096 9.20703 13.4257 9.81641 13.8358C10.4727 14.2694 11.082 14.5741 11.6445 14.7499C12.2188 14.9374 12.7461 15.0341 13.2266 15.0399C13.707 15.0458 14.1465 14.9901 14.5449 14.8729C14.9316 14.7557 15.2715 14.6151 15.5645 14.451C16.0801 14.1698 16.5195 13.8182 16.8828 13.3964C17.2461 12.9862 17.5479 12.538 17.7881 12.0516C18.0283 11.5653 18.207 11.0702 18.3242 10.5663C18.4414 10.0507 18.5 9.55847 18.5 9.08972C18.5 7.84753 18.2656 6.68152 17.7969 5.59167C17.3164 4.50183 16.6689 3.54968 15.8545 2.73523C15.04 1.92078 14.0879 1.27332 12.998 0.792847C11.9082 0.324097 10.7422 0.0897217 9.5 0.0897217Z" fill="#374793"/>
</g>
<defs>
<clipPath id="clip0_1_89">
<rect width="18" height="18" fill="white" transform="matrix(1 0 0 -1 0.5 18.0897)"/>
</clipPath>
</defs>
</svg>
