<svg width="19" height="19" viewBox="0 0 19 19" fill="none" xmlns="http://www.w3.org/2000/svg">
<g id="Icon" clip-path="url(#clip0_1_41)">
<path id="Vector" d="M18.043 13.3612L15.793 11.1288C15.4883 10.8241 15.1162 10.6718 14.6768 10.6718C14.2373 10.6718 13.8652 10.8241 13.5605 11.1288L12.541 12.1483C12.3066 12.3827 12.0254 12.4999 11.6973 12.4999C11.3691 12.4999 11.0879 12.3827 10.8535 12.1483L6.44141 7.73621C6.20703 7.50183 6.08984 7.21765 6.08984 6.88367C6.08984 6.54968 6.20703 6.2655 6.44141 6.03113C6.52344 5.9491 6.66406 5.80847 6.86328 5.60925C7.0625 5.41003 7.26172 5.21667 7.46094 5.02917C7.76562 4.71277 7.91797 4.33777 7.91797 3.90417C7.91797 3.47058 7.76562 3.09558 7.46094 2.77917L5.22852 0.546753C4.91211 0.242065 4.53711 0.0897217 4.10352 0.0897217C3.66992 0.0897217 3.29492 0.242065 2.97852 0.546753C2.75586 0.781128 2.5918 0.94812 2.48633 1.04773C2.38086 1.14734 2.27539 1.24988 2.16992 1.35535C1.60742 1.91785 1.19141 2.55066 0.921875 3.25378C0.640625 3.94519 0.5 4.6571 0.5 5.38953C0.5 6.12195 0.640625 6.83972 0.921875 7.54285C1.19141 8.24597 1.60742 8.87292 2.16992 9.42371L9.14844 16.4198C9.71094 16.9706 10.3438 17.3866 11.0469 17.6678C11.75 17.9491 12.4648 18.0897 13.1914 18.0897C13.918 18.0897 14.6328 17.9491 15.3359 17.6678C16.0391 17.3866 16.666 16.9706 17.2168 16.4198L18.043 15.6112C18.3477 15.2948 18.5 14.9198 18.5 14.4862C18.5 14.0526 18.3477 13.6776 18.043 13.3612ZM3.73438 1.30261C3.82812 1.19714 3.94824 1.14441 4.09473 1.14441C4.24121 1.14441 4.36719 1.19714 4.47266 1.30261L6.70508 3.53503C6.81055 3.62878 6.86328 3.7489 6.86328 3.89539C6.86328 4.04187 6.81055 4.16785 6.70508 4.27332L6.33594 4.64246L3.36523 1.67175L3.73438 1.30261ZM9.9043 15.6639L2.9082 8.68542C2.48633 8.25183 2.1582 7.77136 1.92383 7.24402C1.70117 6.70496 1.57812 6.15417 1.55469 5.59167C1.53125 5.02917 1.60742 4.47839 1.7832 3.93933C1.95898 3.38855 2.24023 2.88464 2.62695 2.42761L5.59766 5.39832C5.21094 5.84363 5.02344 6.36218 5.03516 6.95398C5.04688 7.54578 5.26953 8.05261 5.70312 8.47449L10.0977 12.8866C10.5195 13.3085 11.0293 13.5282 11.627 13.5458C12.2246 13.5634 12.7461 13.3788 13.1914 12.9921L16.1621 15.9628C15.7051 16.3378 15.2012 16.619 14.6504 16.8065C14.0996 16.9823 13.5459 17.0585 12.9893 17.035C12.4326 17.0116 11.8848 16.8885 11.3457 16.6659C10.8184 16.4315 10.3379 16.0975 9.9043 15.6639ZM17.2871 14.8553L16.918 15.2245L13.9297 12.2538L14.3164 11.8671C14.4102 11.7733 14.5303 11.7264 14.6768 11.7264C14.8232 11.7264 14.9492 11.7733 15.0547 11.8671L17.2871 14.1171C17.3926 14.2108 17.4453 14.3309 17.4453 14.4774C17.4453 14.6239 17.3926 14.7499 17.2871 14.8553Z" fill="#374793"/>
</g>
<defs>
<clipPath id="clip0_1_41">
<rect width="18" height="18" fill="white" transform="matrix(1 0 0 -1 0.5 18.0897)"/>
</clipPath>
</defs>
</svg>
